<?xml version="1.0" encoding="UTF-8"?><svg xmlns="http://www.w3.org/2000/svg" xmlns:xlink="http://www.w3.org/1999/xlink" stroke-dasharray="none" shape-rendering="auto" font-family="'Dialog'" width="1273" text-rendering="auto" fill-opacity="1" contentScriptType="text/ecmascript" color-interpolation="auto" color-rendering="auto" preserveAspectRatio="xMidYMid meet" font-size="12" fill="black" stroke="black" image-rendering="auto" stroke-miterlimit="10" zoomAndPan="magnify" version="1.0" stroke-linecap="square" stroke-linejoin="miter" contentStyleType="text/css" font-style="normal" height="462" stroke-width="1" stroke-dashoffset="0" font-weight="normal" stroke-opacity="1">
    <!--Generated by the Batik Graphics2D SVG Generator-->
    <defs id="genericDefs"/>
    <g>
        <defs id="defs1">
            <clipPath clipPathUnits="userSpaceOnUse" id="clipPath1">
                <path d="M25 38 L1248 38 L1248 440 L25 440 L25 38 Z"/>
            </clipPath>
            <clipPath clipPathUnits="userSpaceOnUse" id="clipPath2">
                <path d="M-1 -1 L1274 -1 L1274 463 L-1 463 L-1 -1 Z"/>
            </clipPath>
        </defs>
        <g font-size="14" fill="white" text-rendering="geometricPrecision" font-family="'Ubuntu'" stroke-linejoin="round" stroke="white" stroke-width="0" stroke-miterlimit="0">
            <rect x="26" y="39" clip-path="url(#clipPath1)" width="1221" height="400" stroke="none"/>
        </g>
        <g stroke-linecap="butt" font-size="14" fill="rgb(204,204,204)" text-rendering="geometricPrecision" font-family="'Ubuntu'" stroke-dasharray="3,3" stroke="rgb(204,204,204)">
            <line clip-path="url(#clipPath1)" fill="none" x1="26" x2="26" y1="39" y2="439"/>
            <line clip-path="url(#clipPath1)" fill="none" x1="129" x2="129" y1="39" y2="439"/>
            <line clip-path="url(#clipPath1)" fill="none" x1="233" x2="233" y1="39" y2="439"/>
            <line clip-path="url(#clipPath1)" fill="none" x1="337" x2="337" y1="39" y2="439"/>
            <line clip-path="url(#clipPath1)" fill="none" x1="441" x2="441" y1="39" y2="439"/>
            <line clip-path="url(#clipPath1)" fill="none" x1="545" x2="545" y1="39" y2="439"/>
            <line clip-path="url(#clipPath1)" fill="none" x1="649" x2="649" y1="39" y2="439"/>
            <line clip-path="url(#clipPath1)" fill="none" x1="753" x2="753" y1="39" y2="439"/>
            <line clip-path="url(#clipPath1)" fill="none" x1="857" x2="857" y1="39" y2="439"/>
            <line clip-path="url(#clipPath1)" fill="none" x1="961" x2="961" y1="39" y2="439"/>
            <line clip-path="url(#clipPath1)" fill="none" x1="1065" x2="1065" y1="39" y2="439"/>
            <line clip-path="url(#clipPath1)" fill="none" x1="1169" x2="1169" y1="39" y2="439"/>
            <line clip-path="url(#clipPath1)" fill="none" x1="26" x2="1247" y1="439" y2="439"/>
            <line clip-path="url(#clipPath1)" fill="none" x1="26" x2="1247" y1="377" y2="377"/>
            <line clip-path="url(#clipPath1)" fill="none" x1="26" x2="1247" y1="316" y2="316"/>
            <line clip-path="url(#clipPath1)" fill="none" x1="26" x2="1247" y1="255" y2="255"/>
            <line clip-path="url(#clipPath1)" fill="none" x1="26" x2="1247" y1="194" y2="194"/>
            <line clip-path="url(#clipPath1)" fill="none" x1="26" x2="1247" y1="132" y2="132"/>
            <line clip-path="url(#clipPath1)" fill="none" x1="26" x2="1247" y1="71" y2="71"/>
            <rect x="24" y="143" clip-path="url(#clipPath1)" fill="rgb(0,0,139)" width="5" height="5" stroke="none"/>
            <line clip-path="url(#clipPath1)" fill="none" x1="26" x2="88" y1="145" y2="181" stroke-dasharray="none" stroke="rgb(0,0,139)"/>
            <rect x="86" y="179" clip-path="url(#clipPath1)" fill="rgb(0,0,139)" width="5" stroke-dasharray="none" height="5" stroke="none"/>
            <line clip-path="url(#clipPath1)" fill="none" x1="88" x2="151" y1="181" y2="145" stroke-dasharray="none" stroke="rgb(0,0,139)"/>
            <rect x="149" y="143" clip-path="url(#clipPath1)" fill="rgb(0,0,139)" width="5" stroke-dasharray="none" height="5" stroke="none"/>
            <line clip-path="url(#clipPath1)" fill="none" x1="151" x2="214" y1="145" y2="157" stroke-dasharray="none" stroke="rgb(0,0,139)"/>
            <rect x="212" y="155" clip-path="url(#clipPath1)" fill="rgb(0,0,139)" width="5" stroke-dasharray="none" height="5" stroke="none"/>
            <line clip-path="url(#clipPath1)" fill="none" x1="214" x2="276" y1="157" y2="175" stroke-dasharray="none" stroke="rgb(0,0,139)"/>
            <rect x="274" y="173" clip-path="url(#clipPath1)" fill="rgb(0,0,139)" width="5" stroke-dasharray="none" height="5" stroke="none"/>
            <line clip-path="url(#clipPath1)" fill="none" x1="276" x2="338" y1="175" y2="181" stroke-dasharray="none" stroke="rgb(0,0,139)"/>
            <rect x="336" y="179" clip-path="url(#clipPath1)" fill="rgb(0,0,139)" width="5" stroke-dasharray="none" height="5" stroke="none"/>
            <line clip-path="url(#clipPath1)" fill="none" x1="338" x2="400" y1="181" y2="139" stroke-dasharray="none" stroke="rgb(0,0,139)"/>
            <rect x="398" y="137" clip-path="url(#clipPath1)" fill="rgb(0,0,139)" width="5" stroke-dasharray="none" height="5" stroke="none"/>
            <line clip-path="url(#clipPath1)" fill="none" x1="400" x2="463" y1="139" y2="194" stroke-dasharray="none" stroke="rgb(0,0,139)"/>
            <rect x="461" y="192" clip-path="url(#clipPath1)" fill="rgb(0,0,139)" width="5" stroke-dasharray="none" height="5" stroke="none"/>
            <line clip-path="url(#clipPath1)" fill="none" x1="463" x2="504" y1="194" y2="151" stroke-dasharray="none" stroke="rgb(0,0,139)"/>
            <rect x="502" y="149" clip-path="url(#clipPath1)" fill="rgb(0,0,139)" width="5" stroke-dasharray="none" height="5" stroke="none"/>
            <line clip-path="url(#clipPath1)" fill="none" x1="504" x2="566" y1="151" y2="194" stroke-dasharray="none" stroke="rgb(0,0,139)"/>
            <rect x="564" y="192" clip-path="url(#clipPath1)" fill="rgb(0,0,139)" width="5" stroke-dasharray="none" height="5" stroke="none"/>
            <line clip-path="url(#clipPath1)" fill="none" x1="566" x2="628" y1="194" y2="157" stroke-dasharray="none" stroke="rgb(0,0,139)"/>
            <rect x="626" y="155" clip-path="url(#clipPath1)" fill="rgb(0,0,139)" width="5" stroke-dasharray="none" height="5" stroke="none"/>
            <line clip-path="url(#clipPath1)" fill="none" x1="628" x2="670" y1="157" y2="163" stroke-dasharray="none" stroke="rgb(0,0,139)"/>
            <rect x="668" y="161" clip-path="url(#clipPath1)" fill="rgb(0,0,139)" width="5" stroke-dasharray="none" height="5" stroke="none"/>
            <line clip-path="url(#clipPath1)" fill="none" x1="670" x2="712" y1="163" y2="163" stroke-dasharray="none" stroke="rgb(0,0,139)"/>
            <rect x="710" y="161" clip-path="url(#clipPath1)" fill="rgb(0,0,139)" width="5" stroke-dasharray="none" height="5" stroke="none"/>
            <line clip-path="url(#clipPath1)" fill="none" x1="712" x2="753" y1="163" y2="151" stroke-dasharray="none" stroke="rgb(0,0,139)"/>
            <rect x="751" y="149" clip-path="url(#clipPath1)" fill="rgb(0,0,139)" width="5" stroke-dasharray="none" height="5" stroke="none"/>
            <line clip-path="url(#clipPath1)" fill="none" x1="753" x2="816" y1="151" y2="169" stroke-dasharray="none" stroke="rgb(0,0,139)"/>
            <rect x="814" y="167" clip-path="url(#clipPath1)" fill="rgb(0,0,139)" width="5" stroke-dasharray="none" height="5" stroke="none"/>
            <line clip-path="url(#clipPath1)" fill="none" x1="816" x2="857" y1="169" y2="151" stroke-dasharray="none" stroke="rgb(0,0,139)"/>
            <rect x="855" y="149" clip-path="url(#clipPath1)" fill="rgb(0,0,139)" width="5" stroke-dasharray="none" height="5" stroke="none"/>
            <line clip-path="url(#clipPath1)" fill="none" x1="857" x2="920" y1="151" y2="157" stroke-dasharray="none" stroke="rgb(0,0,139)"/>
            <rect x="918" y="155" clip-path="url(#clipPath1)" fill="rgb(0,0,139)" width="5" stroke-dasharray="none" height="5" stroke="none"/>
            <line clip-path="url(#clipPath1)" fill="none" x1="920" x2="961" y1="157" y2="175" stroke-dasharray="none" stroke="rgb(0,0,139)"/>
            <rect x="959" y="173" clip-path="url(#clipPath1)" fill="rgb(0,0,139)" width="5" stroke-dasharray="none" height="5" stroke="none"/>
            <line clip-path="url(#clipPath1)" fill="none" x1="961" x2="1003" y1="175" y2="169" stroke-dasharray="none" stroke="rgb(0,0,139)"/>
            <rect x="1001" y="167" clip-path="url(#clipPath1)" fill="rgb(0,0,139)" width="5" stroke-dasharray="none" height="5" stroke="none"/>
            <line clip-path="url(#clipPath1)" fill="none" x1="1003" x2="1044" y1="169" y2="145" stroke-dasharray="none" stroke="rgb(0,0,139)"/>
            <rect x="1042" y="143" clip-path="url(#clipPath1)" fill="rgb(0,0,139)" width="5" stroke-dasharray="none" height="5" stroke="none"/>
            <line clip-path="url(#clipPath1)" fill="none" x1="1044" x2="1107" y1="145" y2="169" stroke-dasharray="none" stroke="rgb(0,0,139)"/>
            <rect x="1105" y="167" clip-path="url(#clipPath1)" fill="rgb(0,0,139)" width="5" stroke-dasharray="none" height="5" stroke="none"/>
            <line clip-path="url(#clipPath1)" fill="none" x1="1107" x2="1170" y1="169" y2="194" stroke-dasharray="none" stroke="rgb(0,0,139)"/>
            <rect x="1168" y="192" clip-path="url(#clipPath1)" fill="rgb(0,0,139)" width="5" stroke-dasharray="none" height="5" stroke="none"/>
            <line clip-path="url(#clipPath1)" fill="none" x1="1170" x2="1231" y1="194" y2="175" stroke-dasharray="none" stroke="rgb(0,0,139)"/>
            <rect x="1229" y="173" clip-path="url(#clipPath1)" fill="rgb(0,0,139)" width="5" stroke-dasharray="none" height="5" stroke="none"/>
            <rect x="26" y="39" clip-path="url(#clipPath2)" fill="none" width="1221" stroke-dasharray="none" height="400" stroke="black"/>
        </g>
        <g text-rendering="geometricPrecision" font-size="13" stroke-linecap="butt">
            <text xml:space="preserve" x="573" y="13" clip-path="url(#clipPath2)" stroke="none">Sporadic Frames sent</text>
            <line clip-path="url(#clipPath2)" fill="none" x1="26" x2="1247" y1="37" y2="37"/>
            <line clip-path="url(#clipPath2)" fill="none" x1="26" x2="1247" y1="441" y2="441"/>
            <line clip-path="url(#clipPath2)" fill="none" x1="26" x2="26" y1="33" y2="37"/>
            <line clip-path="url(#clipPath2)" fill="none" x1="26" x2="26" y1="445" y2="441"/>
            <text x="25" font-size="10" y="30" clip-path="url(#clipPath2)" stroke="none" xml:space="preserve">0</text>
            <text x="25" font-size="10" y="456" clip-path="url(#clipPath2)" stroke="none" xml:space="preserve">0</text>
            <line clip-path="url(#clipPath2)" fill="none" x1="46" x2="46" y1="35" y2="37"/>
            <line clip-path="url(#clipPath2)" fill="none" x1="46" x2="46" y1="443" y2="441"/>
            <line clip-path="url(#clipPath2)" fill="none" x1="67" x2="67" y1="35" y2="37"/>
            <line clip-path="url(#clipPath2)" fill="none" x1="67" x2="67" y1="443" y2="441"/>
            <line clip-path="url(#clipPath2)" fill="none" x1="88" x2="88" y1="35" y2="37"/>
            <line clip-path="url(#clipPath2)" fill="none" x1="88" x2="88" y1="443" y2="441"/>
            <line clip-path="url(#clipPath2)" fill="none" x1="109" x2="109" y1="35" y2="37"/>
            <line clip-path="url(#clipPath2)" fill="none" x1="109" x2="109" y1="443" y2="441"/>
            <line clip-path="url(#clipPath2)" fill="none" x1="129" x2="129" y1="33" y2="37"/>
            <line clip-path="url(#clipPath2)" fill="none" x1="129" x2="129" y1="445" y2="441"/>
            <text x="128" font-size="10" y="30" clip-path="url(#clipPath2)" stroke="none" xml:space="preserve">5</text>
            <text x="128" font-size="10" y="456" clip-path="url(#clipPath2)" stroke="none" xml:space="preserve">5</text>
            <line clip-path="url(#clipPath2)" fill="none" x1="150" x2="150" y1="35" y2="37"/>
            <line clip-path="url(#clipPath2)" fill="none" x1="150" x2="150" y1="443" y2="441"/>
            <line clip-path="url(#clipPath2)" fill="none" x1="171" x2="171" y1="35" y2="37"/>
            <line clip-path="url(#clipPath2)" fill="none" x1="171" x2="171" y1="443" y2="441"/>
            <line clip-path="url(#clipPath2)" fill="none" x1="192" x2="192" y1="35" y2="37"/>
            <line clip-path="url(#clipPath2)" fill="none" x1="192" x2="192" y1="443" y2="441"/>
            <line clip-path="url(#clipPath2)" fill="none" x1="213" x2="213" y1="35" y2="37"/>
            <line clip-path="url(#clipPath2)" fill="none" x1="213" x2="213" y1="443" y2="441"/>
            <line clip-path="url(#clipPath2)" fill="none" x1="233" x2="233" y1="33" y2="37"/>
            <line clip-path="url(#clipPath2)" fill="none" x1="233" x2="233" y1="445" y2="441"/>
            <text x="229" font-size="10" y="30" clip-path="url(#clipPath2)" stroke="none" xml:space="preserve">10</text>
            <text x="229" font-size="10" y="456" clip-path="url(#clipPath2)" stroke="none" xml:space="preserve">10</text>
            <line clip-path="url(#clipPath2)" fill="none" x1="254" x2="254" y1="35" y2="37"/>
            <line clip-path="url(#clipPath2)" fill="none" x1="254" x2="254" y1="443" y2="441"/>
            <line clip-path="url(#clipPath2)" fill="none" x1="275" x2="275" y1="35" y2="37"/>
            <line clip-path="url(#clipPath2)" fill="none" x1="275" x2="275" y1="443" y2="441"/>
            <line clip-path="url(#clipPath2)" fill="none" x1="296" x2="296" y1="35" y2="37"/>
            <line clip-path="url(#clipPath2)" fill="none" x1="296" x2="296" y1="443" y2="441"/>
            <line clip-path="url(#clipPath2)" fill="none" x1="316" x2="316" y1="35" y2="37"/>
            <line clip-path="url(#clipPath2)" fill="none" x1="316" x2="316" y1="443" y2="441"/>
            <line clip-path="url(#clipPath2)" fill="none" x1="337" x2="337" y1="33" y2="37"/>
            <line clip-path="url(#clipPath2)" fill="none" x1="337" x2="337" y1="445" y2="441"/>
            <text x="333" font-size="10" y="30" clip-path="url(#clipPath2)" stroke="none" xml:space="preserve">15</text>
            <text x="333" font-size="10" y="456" clip-path="url(#clipPath2)" stroke="none" xml:space="preserve">15</text>
            <line clip-path="url(#clipPath2)" fill="none" x1="358" x2="358" y1="35" y2="37"/>
            <line clip-path="url(#clipPath2)" fill="none" x1="358" x2="358" y1="443" y2="441"/>
            <line clip-path="url(#clipPath2)" fill="none" x1="379" x2="379" y1="35" y2="37"/>
            <line clip-path="url(#clipPath2)" fill="none" x1="379" x2="379" y1="443" y2="441"/>
            <line clip-path="url(#clipPath2)" fill="none" x1="400" x2="400" y1="35" y2="37"/>
            <line clip-path="url(#clipPath2)" fill="none" x1="400" x2="400" y1="443" y2="441"/>
            <line clip-path="url(#clipPath2)" fill="none" x1="420" x2="420" y1="35" y2="37"/>
            <line clip-path="url(#clipPath2)" fill="none" x1="420" x2="420" y1="443" y2="441"/>
            <line clip-path="url(#clipPath2)" fill="none" x1="441" x2="441" y1="33" y2="37"/>
            <line clip-path="url(#clipPath2)" fill="none" x1="441" x2="441" y1="445" y2="441"/>
            <text x="437" font-size="10" y="30" clip-path="url(#clipPath2)" stroke="none" xml:space="preserve">20</text>
            <text x="437" font-size="10" y="456" clip-path="url(#clipPath2)" stroke="none" xml:space="preserve">20</text>
            <line clip-path="url(#clipPath2)" fill="none" x1="462" x2="462" y1="35" y2="37"/>
            <line clip-path="url(#clipPath2)" fill="none" x1="462" x2="462" y1="443" y2="441"/>
            <line clip-path="url(#clipPath2)" fill="none" x1="483" x2="483" y1="35" y2="37"/>
            <line clip-path="url(#clipPath2)" fill="none" x1="483" x2="483" y1="443" y2="441"/>
            <line clip-path="url(#clipPath2)" fill="none" x1="504" x2="504" y1="35" y2="37"/>
            <line clip-path="url(#clipPath2)" fill="none" x1="504" x2="504" y1="443" y2="441"/>
            <line clip-path="url(#clipPath2)" fill="none" x1="524" x2="524" y1="35" y2="37"/>
            <line clip-path="url(#clipPath2)" fill="none" x1="524" x2="524" y1="443" y2="441"/>
            <line clip-path="url(#clipPath2)" fill="none" x1="545" x2="545" y1="33" y2="37"/>
            <line clip-path="url(#clipPath2)" fill="none" x1="545" x2="545" y1="445" y2="441"/>
            <text x="541" font-size="10" y="30" clip-path="url(#clipPath2)" stroke="none" xml:space="preserve">25</text>
            <text x="541" font-size="10" y="456" clip-path="url(#clipPath2)" stroke="none" xml:space="preserve">25</text>
            <line clip-path="url(#clipPath2)" fill="none" x1="566" x2="566" y1="35" y2="37"/>
            <line clip-path="url(#clipPath2)" fill="none" x1="566" x2="566" y1="443" y2="441"/>
            <line clip-path="url(#clipPath2)" fill="none" x1="587" x2="587" y1="35" y2="37"/>
            <line clip-path="url(#clipPath2)" fill="none" x1="587" x2="587" y1="443" y2="441"/>
            <line clip-path="url(#clipPath2)" fill="none" x1="607" x2="607" y1="35" y2="37"/>
            <line clip-path="url(#clipPath2)" fill="none" x1="607" x2="607" y1="443" y2="441"/>
            <line clip-path="url(#clipPath2)" fill="none" x1="628" x2="628" y1="35" y2="37"/>
            <line clip-path="url(#clipPath2)" fill="none" x1="628" x2="628" y1="443" y2="441"/>
            <line clip-path="url(#clipPath2)" fill="none" x1="649" x2="649" y1="33" y2="37"/>
            <line clip-path="url(#clipPath2)" fill="none" x1="649" x2="649" y1="445" y2="441"/>
            <text x="645" font-size="10" y="30" clip-path="url(#clipPath2)" stroke="none" xml:space="preserve">30</text>
            <text x="645" font-size="10" y="456" clip-path="url(#clipPath2)" stroke="none" xml:space="preserve">30</text>
            <line clip-path="url(#clipPath2)" fill="none" x1="670" x2="670" y1="35" y2="37"/>
            <line clip-path="url(#clipPath2)" fill="none" x1="670" x2="670" y1="443" y2="441"/>
            <line clip-path="url(#clipPath2)" fill="none" x1="691" x2="691" y1="35" y2="37"/>
            <line clip-path="url(#clipPath2)" fill="none" x1="691" x2="691" y1="443" y2="441"/>
            <line clip-path="url(#clipPath2)" fill="none" x1="711" x2="711" y1="35" y2="37"/>
            <line clip-path="url(#clipPath2)" fill="none" x1="711" x2="711" y1="443" y2="441"/>
            <line clip-path="url(#clipPath2)" fill="none" x1="732" x2="732" y1="35" y2="37"/>
            <line clip-path="url(#clipPath2)" fill="none" x1="732" x2="732" y1="443" y2="441"/>
            <line clip-path="url(#clipPath2)" fill="none" x1="753" x2="753" y1="33" y2="37"/>
            <line clip-path="url(#clipPath2)" fill="none" x1="753" x2="753" y1="445" y2="441"/>
            <text x="749" font-size="10" y="30" clip-path="url(#clipPath2)" stroke="none" xml:space="preserve">35</text>
            <text x="749" font-size="10" y="456" clip-path="url(#clipPath2)" stroke="none" xml:space="preserve">35</text>
            <line clip-path="url(#clipPath2)" fill="none" x1="774" x2="774" y1="35" y2="37"/>
            <line clip-path="url(#clipPath2)" fill="none" x1="774" x2="774" y1="443" y2="441"/>
            <line clip-path="url(#clipPath2)" fill="none" x1="795" x2="795" y1="35" y2="37"/>
            <line clip-path="url(#clipPath2)" fill="none" x1="795" x2="795" y1="443" y2="441"/>
            <line clip-path="url(#clipPath2)" fill="none" x1="815" x2="815" y1="35" y2="37"/>
            <line clip-path="url(#clipPath2)" fill="none" x1="815" x2="815" y1="443" y2="441"/>
            <line clip-path="url(#clipPath2)" fill="none" x1="836" x2="836" y1="35" y2="37"/>
            <line clip-path="url(#clipPath2)" fill="none" x1="836" x2="836" y1="443" y2="441"/>
            <line clip-path="url(#clipPath2)" fill="none" x1="857" x2="857" y1="33" y2="37"/>
            <line clip-path="url(#clipPath2)" fill="none" x1="857" x2="857" y1="445" y2="441"/>
            <text x="853" font-size="10" y="30" clip-path="url(#clipPath2)" stroke="none" xml:space="preserve">40</text>
            <text x="853" font-size="10" y="456" clip-path="url(#clipPath2)" stroke="none" xml:space="preserve">40</text>
            <line clip-path="url(#clipPath2)" fill="none" x1="878" x2="878" y1="35" y2="37"/>
            <line clip-path="url(#clipPath2)" fill="none" x1="878" x2="878" y1="443" y2="441"/>
            <line clip-path="url(#clipPath2)" fill="none" x1="898" x2="898" y1="35" y2="37"/>
            <line clip-path="url(#clipPath2)" fill="none" x1="898" x2="898" y1="443" y2="441"/>
            <line clip-path="url(#clipPath2)" fill="none" x1="919" x2="919" y1="35" y2="37"/>
            <line clip-path="url(#clipPath2)" fill="none" x1="919" x2="919" y1="443" y2="441"/>
            <line clip-path="url(#clipPath2)" fill="none" x1="940" x2="940" y1="35" y2="37"/>
            <line clip-path="url(#clipPath2)" fill="none" x1="940" x2="940" y1="443" y2="441"/>
            <line clip-path="url(#clipPath2)" fill="none" x1="961" x2="961" y1="33" y2="37"/>
            <line clip-path="url(#clipPath2)" fill="none" x1="961" x2="961" y1="445" y2="441"/>
            <text x="957" font-size="10" y="30" clip-path="url(#clipPath2)" stroke="none" xml:space="preserve">45</text>
            <text x="957" font-size="10" y="456" clip-path="url(#clipPath2)" stroke="none" xml:space="preserve">45</text>
            <line clip-path="url(#clipPath2)" fill="none" x1="982" x2="982" y1="35" y2="37"/>
            <line clip-path="url(#clipPath2)" fill="none" x1="982" x2="982" y1="443" y2="441"/>
            <line clip-path="url(#clipPath2)" fill="none" x1="1002" x2="1002" y1="35" y2="37"/>
            <line clip-path="url(#clipPath2)" fill="none" x1="1002" x2="1002" y1="443" y2="441"/>
            <line clip-path="url(#clipPath2)" fill="none" x1="1023" x2="1023" y1="35" y2="37"/>
            <line clip-path="url(#clipPath2)" fill="none" x1="1023" x2="1023" y1="443" y2="441"/>
            <line clip-path="url(#clipPath2)" fill="none" x1="1044" x2="1044" y1="35" y2="37"/>
            <line clip-path="url(#clipPath2)" fill="none" x1="1044" x2="1044" y1="443" y2="441"/>
            <line clip-path="url(#clipPath2)" fill="none" x1="1065" x2="1065" y1="33" y2="37"/>
            <line clip-path="url(#clipPath2)" fill="none" x1="1065" x2="1065" y1="445" y2="441"/>
            <text x="1061" font-size="10" y="30" clip-path="url(#clipPath2)" stroke="none" xml:space="preserve">50</text>
            <text x="1061" font-size="10" y="456" clip-path="url(#clipPath2)" stroke="none" xml:space="preserve">50</text>
            <line clip-path="url(#clipPath2)" fill="none" x1="1086" x2="1086" y1="35" y2="37"/>
            <line clip-path="url(#clipPath2)" fill="none" x1="1086" x2="1086" y1="443" y2="441"/>
            <line clip-path="url(#clipPath2)" fill="none" x1="1106" x2="1106" y1="35" y2="37"/>
            <line clip-path="url(#clipPath2)" fill="none" x1="1106" x2="1106" y1="443" y2="441"/>
            <line clip-path="url(#clipPath2)" fill="none" x1="1127" x2="1127" y1="35" y2="37"/>
            <line clip-path="url(#clipPath2)" fill="none" x1="1127" x2="1127" y1="443" y2="441"/>
            <line clip-path="url(#clipPath2)" fill="none" x1="1148" x2="1148" y1="35" y2="37"/>
            <line clip-path="url(#clipPath2)" fill="none" x1="1148" x2="1148" y1="443" y2="441"/>
            <line clip-path="url(#clipPath2)" fill="none" x1="1169" x2="1169" y1="33" y2="37"/>
            <line clip-path="url(#clipPath2)" fill="none" x1="1169" x2="1169" y1="445" y2="441"/>
            <text x="1165" font-size="10" y="30" clip-path="url(#clipPath2)" stroke="none" xml:space="preserve">55</text>
            <text x="1165" font-size="10" y="456" clip-path="url(#clipPath2)" stroke="none" xml:space="preserve">55</text>
            <line clip-path="url(#clipPath2)" fill="none" x1="1189" x2="1189" y1="35" y2="37"/>
            <line clip-path="url(#clipPath2)" fill="none" x1="1189" x2="1189" y1="443" y2="441"/>
            <line clip-path="url(#clipPath2)" fill="none" x1="1210" x2="1210" y1="35" y2="37"/>
            <line clip-path="url(#clipPath2)" fill="none" x1="1210" x2="1210" y1="443" y2="441"/>
            <line clip-path="url(#clipPath2)" fill="none" x1="1231" x2="1231" y1="35" y2="37"/>
            <line clip-path="url(#clipPath2)" fill="none" x1="1231" x2="1231" y1="443" y2="441"/>
            <line clip-path="url(#clipPath2)" fill="none" x1="24" x2="24" y1="39" y2="439"/>
            <line clip-path="url(#clipPath2)" fill="none" x1="1249" x2="1249" y1="39" y2="439"/>
            <line clip-path="url(#clipPath2)" fill="none" x1="20" x2="24" y1="439" y2="439"/>
            <line clip-path="url(#clipPath2)" fill="none" x1="1253" x2="1249" y1="439" y2="439"/>
            <text x="14" font-size="10" y="443" clip-path="url(#clipPath2)" stroke="none" xml:space="preserve">0</text>
            <text x="1256" font-size="10" y="443" clip-path="url(#clipPath2)" stroke="none" xml:space="preserve">0</text>
            <line clip-path="url(#clipPath2)" fill="none" x1="22" x2="24" y1="426" y2="426"/>
            <line clip-path="url(#clipPath2)" fill="none" x1="1251" x2="1249" y1="426" y2="426"/>
            <line clip-path="url(#clipPath2)" fill="none" x1="22" x2="24" y1="414" y2="414"/>
            <line clip-path="url(#clipPath2)" fill="none" x1="1251" x2="1249" y1="414" y2="414"/>
            <line clip-path="url(#clipPath2)" fill="none" x1="22" x2="24" y1="402" y2="402"/>
            <line clip-path="url(#clipPath2)" fill="none" x1="1251" x2="1249" y1="402" y2="402"/>
            <line clip-path="url(#clipPath2)" fill="none" x1="22" x2="24" y1="390" y2="390"/>
            <line clip-path="url(#clipPath2)" fill="none" x1="1251" x2="1249" y1="390" y2="390"/>
            <line clip-path="url(#clipPath2)" fill="none" x1="20" x2="24" y1="377" y2="377"/>
            <line clip-path="url(#clipPath2)" fill="none" x1="1253" x2="1249" y1="377" y2="377"/>
            <text x="9" font-size="10" y="381" clip-path="url(#clipPath2)" stroke="none" xml:space="preserve">10</text>
            <text x="1256" font-size="10" y="381" clip-path="url(#clipPath2)" stroke="none" xml:space="preserve">10</text>
            <line clip-path="url(#clipPath2)" fill="none" x1="22" x2="24" y1="365" y2="365"/>
            <line clip-path="url(#clipPath2)" fill="none" x1="1251" x2="1249" y1="365" y2="365"/>
            <line clip-path="url(#clipPath2)" fill="none" x1="22" x2="24" y1="353" y2="353"/>
            <line clip-path="url(#clipPath2)" fill="none" x1="1251" x2="1249" y1="353" y2="353"/>
            <line clip-path="url(#clipPath2)" fill="none" x1="22" x2="24" y1="341" y2="341"/>
            <line clip-path="url(#clipPath2)" fill="none" x1="1251" x2="1249" y1="341" y2="341"/>
            <line clip-path="url(#clipPath2)" fill="none" x1="22" x2="24" y1="328" y2="328"/>
            <line clip-path="url(#clipPath2)" fill="none" x1="1251" x2="1249" y1="328" y2="328"/>
            <line clip-path="url(#clipPath2)" fill="none" x1="20" x2="24" y1="316" y2="316"/>
            <line clip-path="url(#clipPath2)" fill="none" x1="1253" x2="1249" y1="316" y2="316"/>
            <text x="9" font-size="10" y="320" clip-path="url(#clipPath2)" stroke="none" xml:space="preserve">20</text>
            <text x="1256" font-size="10" y="320" clip-path="url(#clipPath2)" stroke="none" xml:space="preserve">20</text>
            <line clip-path="url(#clipPath2)" fill="none" x1="22" x2="24" y1="304" y2="304"/>
            <line clip-path="url(#clipPath2)" fill="none" x1="1251" x2="1249" y1="304" y2="304"/>
            <line clip-path="url(#clipPath2)" fill="none" x1="22" x2="24" y1="292" y2="292"/>
            <line clip-path="url(#clipPath2)" fill="none" x1="1251" x2="1249" y1="292" y2="292"/>
            <line clip-path="url(#clipPath2)" fill="none" x1="22" x2="24" y1="279" y2="279"/>
            <line clip-path="url(#clipPath2)" fill="none" x1="1251" x2="1249" y1="279" y2="279"/>
            <line clip-path="url(#clipPath2)" fill="none" x1="22" x2="24" y1="267" y2="267"/>
            <line clip-path="url(#clipPath2)" fill="none" x1="1251" x2="1249" y1="267" y2="267"/>
            <line clip-path="url(#clipPath2)" fill="none" x1="20" x2="24" y1="255" y2="255"/>
            <line clip-path="url(#clipPath2)" fill="none" x1="1253" x2="1249" y1="255" y2="255"/>
            <text x="9" font-size="10" y="259" clip-path="url(#clipPath2)" stroke="none" xml:space="preserve">30</text>
            <text x="1256" font-size="10" y="259" clip-path="url(#clipPath2)" stroke="none" xml:space="preserve">30</text>
            <line clip-path="url(#clipPath2)" fill="none" x1="22" x2="24" y1="243" y2="243"/>
            <line clip-path="url(#clipPath2)" fill="none" x1="1251" x2="1249" y1="243" y2="243"/>
            <line clip-path="url(#clipPath2)" fill="none" x1="22" x2="24" y1="230" y2="230"/>
            <line clip-path="url(#clipPath2)" fill="none" x1="1251" x2="1249" y1="230" y2="230"/>
            <line clip-path="url(#clipPath2)" fill="none" x1="22" x2="24" y1="218" y2="218"/>
            <line clip-path="url(#clipPath2)" fill="none" x1="1251" x2="1249" y1="218" y2="218"/>
            <line clip-path="url(#clipPath2)" fill="none" x1="22" x2="24" y1="206" y2="206"/>
            <line clip-path="url(#clipPath2)" fill="none" x1="1251" x2="1249" y1="206" y2="206"/>
            <line clip-path="url(#clipPath2)" fill="none" x1="20" x2="24" y1="194" y2="194"/>
            <line clip-path="url(#clipPath2)" fill="none" x1="1253" x2="1249" y1="194" y2="194"/>
            <text x="9" font-size="10" y="198" clip-path="url(#clipPath2)" stroke="none" xml:space="preserve">40</text>
            <text x="1256" font-size="10" y="198" clip-path="url(#clipPath2)" stroke="none" xml:space="preserve">40</text>
            <line clip-path="url(#clipPath2)" fill="none" x1="22" x2="24" y1="181" y2="181"/>
            <line clip-path="url(#clipPath2)" fill="none" x1="1251" x2="1249" y1="181" y2="181"/>
            <line clip-path="url(#clipPath2)" fill="none" x1="22" x2="24" y1="169" y2="169"/>
            <line clip-path="url(#clipPath2)" fill="none" x1="1251" x2="1249" y1="169" y2="169"/>
            <line clip-path="url(#clipPath2)" fill="none" x1="22" x2="24" y1="157" y2="157"/>
            <line clip-path="url(#clipPath2)" fill="none" x1="1251" x2="1249" y1="157" y2="157"/>
            <line clip-path="url(#clipPath2)" fill="none" x1="22" x2="24" y1="145" y2="145"/>
            <line clip-path="url(#clipPath2)" fill="none" x1="1251" x2="1249" y1="145" y2="145"/>
            <line clip-path="url(#clipPath2)" fill="none" x1="20" x2="24" y1="132" y2="132"/>
            <line clip-path="url(#clipPath2)" fill="none" x1="1253" x2="1249" y1="132" y2="132"/>
            <text x="9" font-size="10" y="136" clip-path="url(#clipPath2)" stroke="none" xml:space="preserve">50</text>
            <text x="1256" font-size="10" y="136" clip-path="url(#clipPath2)" stroke="none" xml:space="preserve">50</text>
            <line clip-path="url(#clipPath2)" fill="none" x1="22" x2="24" y1="120" y2="120"/>
            <line clip-path="url(#clipPath2)" fill="none" x1="1251" x2="1249" y1="120" y2="120"/>
            <line clip-path="url(#clipPath2)" fill="none" x1="22" x2="24" y1="108" y2="108"/>
            <line clip-path="url(#clipPath2)" fill="none" x1="1251" x2="1249" y1="108" y2="108"/>
            <line clip-path="url(#clipPath2)" fill="none" x1="22" x2="24" y1="96" y2="96"/>
            <line clip-path="url(#clipPath2)" fill="none" x1="1251" x2="1249" y1="96" y2="96"/>
            <line clip-path="url(#clipPath2)" fill="none" x1="22" x2="24" y1="83" y2="83"/>
            <line clip-path="url(#clipPath2)" fill="none" x1="1251" x2="1249" y1="83" y2="83"/>
            <line clip-path="url(#clipPath2)" fill="none" x1="20" x2="24" y1="71" y2="71"/>
            <line clip-path="url(#clipPath2)" fill="none" x1="1253" x2="1249" y1="71" y2="71"/>
            <text x="9" font-size="10" y="75" clip-path="url(#clipPath2)" stroke="none" xml:space="preserve">60</text>
            <text x="1256" font-size="10" y="75" clip-path="url(#clipPath2)" stroke="none" xml:space="preserve">60</text>
            <line clip-path="url(#clipPath2)" fill="none" x1="22" x2="24" y1="59" y2="59"/>
            <line clip-path="url(#clipPath2)" fill="none" x1="1251" x2="1249" y1="59" y2="59"/>
            <line clip-path="url(#clipPath2)" fill="none" x1="22" x2="24" y1="47" y2="47"/>
            <line clip-path="url(#clipPath2)" fill="none" x1="1251" x2="1249" y1="47" y2="47"/>
        </g>
    </g>
</svg>
